<?xml version="1.0" encoding="utf-8"?>
<!-- Generator: Adobe Illustrator 23.0.4, SVG Export Plug-In . SVG Version: 6.00 Build 0)  -->
<svg version="1.1" id="Layer_1" xmlns="http://www.w3.org/2000/svg" xmlns:xlink="http://www.w3.org/1999/xlink" x="0px" y="0px"
	 viewBox="0 0 1725.1 353.72" style="enable-background:new 0 0 1725.1 353.72;" xml:space="preserve">
<style type="text/css">
	.st0{fill:#29252D;}
	.st1{fill:#FFFFFF;}
	.st2{fill:none;stroke:#F30001;stroke-width:8;stroke-miterlimit:10;}
</style>
<path class="st1" d="M485.71,209.68c0-31.36,0-61.28,0-91.59c5.06,0,9.78,0,14.82,0c0,39.14,0,78.36,0,117.77c-4.12,0-8.1,0-12.57,0
	c-28.97-36.28-58.15-72.81-87.23-109.23c0-3.05,0-5.87,0-8.98c3.9,0,7.67,0,11.82,0C436.52,147.81,460.65,178.16,485.71,209.68z"/>
<path class="st1" d="M1252.33,126.84c0-3.33,0-6.12,0-9.19c3.83,0,7.43,0,11.66,0c23.94,30.11,48.16,60.56,73.19,92.04
	c0-31.28,0-61.31,0-91.66c5.22,0,9.95,0,14.98,0c0,39.14,0,78.22,0,117.67c-4.08,0-8.16,0-12.87,0
	C1310.53,199.71,1281.44,163.28,1252.33,126.84z"/>
<path class="st1" d="M1018.55,168.91c0-17.48,0-34.11,0-51.14c4.93,0,9.65,0,14.71,0c0,39.12,0,78.32,0,117.9
	c-4.54,0-9.27,0-14.49,0c0-17.52,0-35.25,0-53.48c-17.53,0-34.58,0-51.9,0c0-4.58,0-8.67,0-13.29
	C983.87,168.91,1000.91,168.91,1018.55,168.91z"/>
<path class="st1" d="M938.54,117.59c5,0,9.62,0,14.53,0c0,39.43,0,78.61,0,118.13c-4.81,0-9.54,0-14.53,0
	C938.54,196.48,938.54,157.26,938.54,117.59z"/>
<path class="st1" d="M775.57,235.87c-5.58,0-10.53,0-16.02,0c-4.59-11.27-9.26-22.74-14-34.41c-12.36,0-24.47,0-37.44,0
	c1.53-4.19,2.86-7.81,4.32-11.8c9.72,0,19.31,0,29.74,0c-5.13-13.14-9.99-25.58-14.95-38.3c2-5.44,4.05-10.98,6.52-17.69
	C747.91,168.3,761.63,201.8,775.57,235.87z"/>
<path class="st1" d="M798.68,183.91c5.12,0,9.9,0,14.75,0c4.47,19.56,13.85,35.1,35.05,38.88c17.61,3.14,31.02-4.35,40.22-19.97
	c3.97,2.17,7.85,4.29,11.7,6.39c-4.21,16.19-27.87,28.9-51.25,27.68C825.2,235.63,802.78,212.31,798.68,183.91z"/>
<path class="st1" d="M898.68,142.69c-3.98,2.59-7.7,5.01-11.62,7.56c-8.88-16.05-22.74-22.31-39.95-19.15
	c-20.64,3.8-29.71,18.98-33.53,38.37c-4.92,0-9.67,0-14.42,0c-1.71-19.11,17.53-44.05,38.79-50.32
	C863.19,111.71,887.04,120.79,898.68,142.69z"/>
<path class="st1" d="M540.62,183.87c5.04,0,9.67,0,14.49,0c5.01,20.66,15.13,36.71,38.31,39.39c15.45,1.79,28.18-5.6,36.95-20.51
	c3.98,2.16,7.98,4.34,11.95,6.49c-5.81,17.41-30.82,30.3-53.03,27.51C564.9,233.69,542.74,209.81,540.62,183.87z"/>
<path class="st1" d="M555.34,169.48c-4.99,0-9.78,0-14.56,0c-0.44-21.95,19.02-45.43,42.2-51.17c24.04-5.95,47.03,3.74,57.42,24.43
	c-3.71,2.42-7.45,4.86-11.47,7.49c-9.07-16.2-23.21-22.53-40.8-18.99C567.81,135.34,559.09,150.63,555.34,169.48z"/>
<path class="st1" d="M681.46,235.79c-5.28,0-10.04,0-15.46,0c16.27-39.74,32.36-79.01,48.44-118.28c4.2,0,7.99,0,13.07,0
	C712.03,157.26,696.78,196.44,681.46,235.79z"/>
<path class="st1" d="M1414.28,130.83c0,7.93,0,15.36,0,23c-5.19,0-9.94,0-14.84,0c0-12.14,0-24.05,0-36.22c26.2,0,52.12,0,78.45,0
	c0,4.29,0,8.49,0,13.23C1456.82,130.83,1435.76,130.83,1414.28,130.83z"/>
<path class="st1" d="M1095.68,153.89c-5.36,0-9.99,0-14.94,0c0-11.99,0-23.88,0-36.16c26.11,0,52.26,0,78.59,0c0,4.32,0,8.43,0,13
	c-21.16,0-42.21,0-63.65,0C1095.68,138.59,1095.68,146,1095.68,153.89z"/>
<path class="st1" d="M120.95,117.56c5.02,0,9.63,0,14.52,0c0,29.96,0,59.83,0,89.9c-4.83,0-9.55,0-14.52,0
	C120.95,177.48,120.95,147.77,120.95,117.56z"/>
<path class="st1" d="M1507.61,130.5c0-4.25,0-8.37,0-12.83c32.17,0,64.21,0,96.54,0c0,4.24,0,8.33,0,12.83
	C1572.22,130.5,1540.19,130.5,1507.61,130.5z"/>
<path class="st1" d="M1548.69,146.05c4.98,0,9.59,0,14.49,0c0,29.9,0,59.62,0,89.68c-4.77,0-9.49,0-14.49,0
	C1548.69,205.94,1548.69,176.21,1548.69,146.05z"/>
<path class="st1" d="M1414.18,207.61c-5.27,0-9.75,0-14.62,0c0-12.82,0-25.52,0-38.4c23.27,0,46.37,0,69.83,0c0,4.17,0,8.2,0,12.72
	c-18.31,0-36.55,0-55.21,0C1414.18,190.66,1414.18,198.92,1414.18,207.61z"/>
<path class="st1" d="M1080.86,169.29c23.24,0,46.44,0,69.94,0c0,4.08,0,8,0,12.37c-18.22,0-36.42,0-55.19,0c0,8.78,0,17.15,0,25.79
	c-5.15,0-9.74,0-14.75,0C1080.86,194.88,1080.86,182.21,1080.86,169.29z"/>
<path class="st1" d="M1252.31,150.19c5.08,6.58,9.4,12.04,13.54,17.63c0.81,1.1,1.29,2.73,1.3,4.11
	c0.08,21.11,0.06,42.22,0.06,63.73c-5.04,0-9.88,0-14.89,0C1252.31,207.54,1252.31,179.52,1252.31,150.19z"/>
<path class="st1" d="M400.86,150.22c5,6.47,9.38,12.07,13.65,17.75c0.64,0.85,1.06,2.1,1.06,3.17c0.06,21.44,0.05,42.89,0.05,64.62
	c-5.05,0-9.77,0-14.76,0C400.86,207.63,400.86,179.58,400.86,150.22z"/>
<path class="st1" d="M201.85,223.07c0,4.34,0,8.32,0,12.64c-26.87,0-53.62,0-80.76,0c0-4.08,0-8.28,0-12.64
	C148.05,223.07,174.92,223.07,201.85,223.07z"/>
<path class="st1" d="M1160.63,223c0,4.3,0,8.39,0,12.76c-26.57,0-52.99,0-79.8,0c0-4.05,0-8.25,0-12.76
	C1107.34,223,1133.88,223,1160.63,223z"/>
<path class="st1" d="M1479.42,222.97c0,4.39,0,8.48,0,12.82c-26.62,0-53.04,0-79.85,0c0-4.17,0-8.36,0-12.82
	C1426.06,222.97,1452.49,222.97,1479.42,222.97z"/>
<path class="st1" d="M1196.75,235.69c0-6.01,0-11.91,0-18.1c3.9,0,7.66,0,11.75,0c0,5.92,0,11.84,0,18.1
	C1204.69,235.69,1200.83,235.69,1196.75,235.69z"/>
<path class="st2" d="M360.31,232.15c0,0-26.51,5.63-48.23-6.72c-21.72-12.35-30.44-38.01-30.44-38.01s26.51-5.63,48.23,6.72
	C351.59,206.49,360.31,232.15,360.31,232.15z"/>
<path class="st2" d="M294.81,122.03c0,0,18.13,20.14,18.29,45.13c0.16,24.99-17.7,45.37-17.7,45.37s-18.13-20.14-18.29-45.13
	C276.95,142.41,294.81,122.03,294.81,122.03z"/>
<path class="st2" d="M231.71,233.01c0,0,8.38-25.77,29.94-38.41s48.14-7.35,48.14-7.35s-8.38,25.77-29.94,38.41
	C258.28,238.29,231.71,233.01,231.71,233.01z"/>
<circle class="st2" cx="295.84" cy="196.41" r="37.09"/>
</svg>
